<?xml version="1.0" encoding="UTF-8" standalone="no"?>
<!-- Created with Inkscape (http://www.inkscape.org/) -->

<svg
   width="210mm"
   height="297mm"
   viewBox="0 0 210 297"
   version="1.1"
   id="svg5"
   inkscape:version="1.1 (ce6663b3b7, 2021-05-25)"
   sodipodi:docname="close.svg"
   inkscape:export-filename="/home/tony/electron/vlcng/src/assets/img/close.png"
   inkscape:export-xdpi="96"
   inkscape:export-ydpi="96"
   xmlns:inkscape="http://www.inkscape.org/namespaces/inkscape"
   xmlns:sodipodi="http://sodipodi.sourceforge.net/DTD/sodipodi-0.dtd"
   xmlns="http://www.w3.org/2000/svg"
   xmlns:svg="http://www.w3.org/2000/svg">
  <sodipodi:namedview
     id="namedview7"
     pagecolor="#ffffff"
     bordercolor="#666666"
     borderopacity="1.0"
     inkscape:pageshadow="2"
     inkscape:pageopacity="0.0"
     inkscape:pagecheckerboard="0"
     inkscape:document-units="px"
     showgrid="false"
     showborder="false"
     inkscape:zoom="2.084596"
     inkscape:cx="490.50273"
     inkscape:cy="-22.546336"
     inkscape:window-width="1366"
     inkscape:window-height="731"
     inkscape:window-x="0"
     inkscape:window-y="0"
     inkscape:window-maximized="1"
     inkscape:current-layer="layer1" />
  <defs
     id="defs2" />
  <g
     inkscape:label="Layer 1"
     inkscape:groupmode="layer"
     id="layer1">
    <rect
       style="opacity:0;fill:#808080;fill-opacity:0.734832;stroke:#ffffff;stroke-width:1.68134;stroke-opacity:0.995863"
       id="rect846"
       width="22.318661"
       height="22.318665"
       x="148.54591"
       y="-23.668186" />
    <path
       id="rect1817"
       style="opacity:1;fill:#ff0000;fill-opacity:0.734832;stroke-width:1.28981;stroke-opacity:0.995863"
       d="m 151.50784,-21.423548 c -0.0546,0 -0.10979,0.02135 -0.15174,0.06377 l -0.50252,0.508356 c -0.0839,0.08488 -0.0839,0.221406 0,0.306273 l 7.88224,7.973875 -7.88224,7.9738703 c -0.0839,0.084873 -0.0839,0.2217724 0,0.3066436 l 0.50252,0.5083559 c 0.084,0.084873 0.21922,0.084873 0.30312,0 l 7.88223,-7.9738688 7.88222,7.9738717 c 0.0838,0.084873 0.21885,0.084873 0.30275,0 l 0.50252,-0.5083559 c 0.0838,-0.084873 0.0838,-0.2217725 0,-0.3066436 l -7.88223,-7.9738712 7.88223,-7.973874 c 0.0838,-0.08488 0.0838,-0.221401 0,-0.306273 l -0.50252,-0.508356 c -0.0839,-0.08488 -0.21885,-0.08488 -0.30275,0 l -7.88222,7.973872 -7.88223,-7.973872 c -0.042,-0.04243 -0.0967,-0.06377 -0.15138,-0.06377 z" />
  </g>
</svg>
